<?xml version="1.0" standalone="no"?>
<!DOCTYPE svg PUBLIC "-//W3C//DTD SVG 20010904//EN"
 "http://www.w3.org/TR/2001/REC-SVG-20010904/DTD/svg10.dtd">
<svg version="1.0" xmlns="http://www.w3.org/2000/svg"
 width="240.000000pt" height="240.000000pt" viewBox="0 0 240.000000 240.000000"
 preserveAspectRatio="xMidYMid meet">

<g transform="translate(0.000000,240.000000) scale(0.100000,-0.100000)"
fill="#000000" stroke="none">
<path d="M1533 1765 c-62 -27 -54 -99 15 -134 40 -21 52 -36 45 -58 -7 -21
-44 -15 -50 7 -4 14 -14 20 -34 20 -27 0 -28 -2 -18 -27 14 -37 38 -52 82 -53
76 0 104 75 46 124 -17 14 -34 26 -39 26 -16 0 -39 31 -34 45 8 19 40 19 48 0
5 -13 56 -23 56 -10 0 21 -28 56 -53 65 -16 5 -30 10 -31 10 -1 -1 -15 -7 -33
-15z"/>
<path d="M1735 1772 c-33 -7 -55 -33 -55 -67 0 -34 16 -53 68 -79 25 -13 32
-23 30 -39 -4 -29 -38 -35 -45 -8 -4 15 -13 21 -35 21 -26 0 -29 -3 -23 -22
18 -61 106 -80 144 -32 12 15 21 34 21 43 0 27 -29 60 -71 81 -21 11 -39 27
-39 36 0 22 31 30 45 11 13 -17 65 -24 65 -8 0 4 -9 20 -20 33 -20 26 -50 37
-85 30z"/>
<path d="M560 1645 l0 -125 76 0 c72 0 75 1 72 23 -2 18 -10 23 -45 25 -40 3
-43 5 -43 33 0 27 3 29 35 29 28 0 35 4 35 20 0 16 -7 20 -35 20 -32 0 -35 2
-35 30 0 29 2 30 45 30 38 0 45 3 45 20 0 18 -7 20 -75 20 l-75 0 0 -125z"/>
<path d="M750 1709 l29 -62 -30 -58 c-16 -32 -29 -61 -29 -64 0 -11 61 -4 65
8 2 6 10 26 16 42 l11 30 16 -42 c14 -37 20 -43 44 -43 35 0 35 6 1 75 l-27
55 27 55 c15 31 27 58 27 60 0 3 -13 5 -29 5 -23 0 -31 -6 -43 -37 l-15 -38
-17 38 c-13 31 -21 37 -46 37 l-29 0 29 -61z"/>
<path d="M930 1645 l0 -125 25 0 c23 0 25 4 25 45 0 44 1 45 33 45 67 0 103
59 73 118 -19 36 -33 42 -102 42 l-54 0 0 -125z m94 79 c21 -8 21 -60 0 -68
-35 -13 -44 -7 -44 34 0 41 9 47 44 34z"/>
<path d="M1130 1645 l0 -125 25 0 c23 0 25 4 25 45 0 25 5 45 11 45 5 0 19
-20 30 -45 16 -36 25 -45 44 -45 30 0 30 6 6 62 -18 43 -18 44 0 67 25 30 24
62 -2 95 -18 23 -28 26 -80 26 l-59 0 0 -125z m98 48 c3 -30 1 -33 -22 -33
-23 0 -26 4 -26 36 0 31 3 35 23 32 17 -2 23 -11 25 -35z"/>
<path d="M1320 1645 l0 -126 73 3 c64 3 72 5 72 23 0 17 -8 20 -47 23 -46 3
-48 5 -48 33 0 27 2 29 40 29 33 0 40 3 40 20 0 17 -7 20 -40 20 -38 0 -40 2
-40 30 0 29 1 30 50 30 43 0 50 3 50 20 0 18 -7 20 -75 20 l-75 0 0 -125z"/>
<path d="M1107 1293 c-4 -3 -7 -127 -7 -275 0 -163 -4 -277 -10 -288 -13 -25
-71 -36 -101 -20 -13 7 -36 24 -51 37 l-27 25 -55 -31 c-31 -18 -58 -36 -61
-40 -8 -14 49 -81 95 -112 115 -77 271 -58 337 43 l28 41 3 314 3 313 -74 0
c-40 0 -77 -3 -80 -7z"/>
<path d="M1542 1289 c-121 -24 -187 -124 -162 -245 16 -77 62 -122 182 -179
133 -62 166 -108 113 -160 -47 -48 -149 -25 -191 42 -10 15 -19 30 -20 31 -1
2 -30 -15 -63 -38 l-61 -41 17 -31 c22 -37 62 -72 117 -101 33 -17 59 -21 131
-22 78 0 97 4 140 26 91 46 133 145 106 247 -19 68 -62 108 -180 164 -128 61
-141 72 -141 114 0 74 97 87 151 20 17 -20 17 -20 73 17 31 20 56 40 56 44 0
3 -11 21 -25 39 -45 59 -152 92 -243 73z"/>
</g>
</svg>
